<svg xmlns="http://www.w3.org/2000/svg" width="50" height="50" viewBox="0 0 50 50">
  <defs>
    <style>
      .cls-1 {
        fill: none;
      }

      .cls-2 {
        fill: #becad7;
      }
    </style>
  </defs>
  <g id="组_5494" data-name="组 5494" transform="translate(-27 -1086)">
    <g id="组_5492" data-name="组 5492" transform="translate(0 110)">
      <rect id="矩形_5036" data-name="矩形 5036" class="cls-1" width="50" height="50" transform="translate(27 976)"/>
    </g>
    <g id="数据" transform="translate(-5 1075.001)">
      <path id="路径_1740" data-name="路径 1740" class="cls-2" d="M54.919,145.009a17.921,17.921,0,1,1,0-35.842h1.214v16.759H72.846V127.1a17.9,17.9,0,0,1-17.927,17.911Zm-1.131-33.464a15.576,15.576,0,1,0,16.667,16.717H53.788Z" transform="translate(0 -89.01)"/>
      <path id="路径_1741" data-name="路径 1741" class="cls-2" d="M569.358,34.529l-1.173,0H551.1V16.267l1.177,0a17.077,17.077,0,0,1,17.086,17.073v1.185ZM553.445,32.18h13.522a14.762,14.762,0,0,0-13.522-13.522Z" transform="translate(-492.571)"/>
    </g>
  </g>
</svg>
