<svg xmlns="http://www.w3.org/2000/svg" width="50" height="50" viewBox="0 0 50 50">
  <defs>
    <style>
      .cls-1 {
        fill: #becad7;
      }

      .cls-2 {
        fill: none;
      }
    </style>
  </defs>
  <g id="组_4676" data-name="组 4676" transform="translate(-32 -946)">
    <g id="导游_2_" data-name="导游  (2)" transform="translate(-29.92 793.145)">
      <path id="路径_1298" data-name="路径 1298" class="cls-1" d="M89.869,183.257a13.621,13.621,0,0,0-4.269-1.478,2.395,2.395,0,0,0-2.291.892c-.8,1.021-1.731,2.239-2.619,3.4l-.274.359-.3-.361c-.819-.994-1.838-2.232-2.744-3.3a2.406,2.406,0,0,0-2.36-.8A13.447,13.447,0,0,0,64.183,193.9a2.261,2.261,0,0,0,2.263,2.462H89.911C89.911,195.773,89.869,184.307,89.869,183.257Zm-23.177,10.59-.159-.168a10.849,10.849,0,0,1,2.793-6.007,11.83,11.83,0,0,1,6.026-3.434l.216-.051.142.169c1.346,1.6,3.046,3.667,3.755,4.535a1.281,1.281,0,0,0,.991.466h.019a1.256,1.256,0,0,0,.991-.5c.336-.448,2.153-2.846,3.573-4.664l.134-.171.215.039a4.185,4.185,0,0,1,2.121.61v9.178H66.691ZM80.21,178.741a9.694,9.694,0,0,0,6.868-2.819,9.566,9.566,0,0,0,0-13.611,9.777,9.777,0,0,0-13.735,0,9.565,9.565,0,0,0,0,13.611,9.694,9.694,0,0,0,6.868,2.819Zm-5.236-14.813a7.447,7.447,0,0,1,10.472,0,7.286,7.286,0,0,1,0,10.378,7.447,7.447,0,0,1-10.472,0,7.286,7.286,0,0,1,0-10.378ZM92.158,175.9h15.708a.5.5,0,0,1-.185.107,1.716,1.716,0,0,0-.818.8,1.737,1.737,0,0,0-.148,1.155,1.433,1.433,0,0,0,.069.221l-5.361-6.01a4.387,4.387,0,0,1,0-5.2l5.321-6.01a.55.55,0,0,1-.03.222,1.769,1.769,0,0,0,.96,1.956,1.4,1.4,0,0,0,.217.079l-15.731.03m16.537-1.082-5.466,6.2a2.1,2.1,0,0,0,0,2.411l5.466,6.2c.51.666.24,1.205-.6,1.205H92.158v-17.22H108.1C108.938,160.963,109.2,161.51,108.695,162.168Z" transform="translate(0)"/>
      <path id="路径_1299" data-name="路径 1299" class="cls-1" d="M616.942,206.778a1.154,1.154,0,0,1-2.307,0V172.447a1.154,1.154,0,0,1,2.307,0Z" transform="translate(-522.94 -11.241)"/>
    </g>
    <rect id="矩形_5036" data-name="矩形 5036" class="cls-2" width="50" height="50" transform="translate(32 946)"/>
  </g>
</svg>
