<svg xmlns="http://www.w3.org/2000/svg" width="50" height="50" viewBox="0 0 50 50">
  <defs>
    <style>
      .cls-1 {
        fill: none;
      }

      .cls-2 {
        fill: #becad7;
      }
    </style>
  </defs>
  <g id="组_5511" data-name="组 5511" transform="translate(-27 -375)">
    <g id="组_5492" data-name="组 5492" transform="translate(0 -601)">
      <rect id="矩形_5036" data-name="矩形 5036" class="cls-1" width="50" height="50" transform="translate(27 976)"/>
    </g>
    <g id="图文直播" transform="translate(-116.246 257.326)">
      <path id="路径_1757" data-name="路径 1757" class="cls-2" d="M185.866,128.515v31.264H153.577V128.515h32.289m.1-2.563H153.5a2.461,2.461,0,0,0-2.46,2.46v31.443a2.461,2.461,0,0,0,2.46,2.46h32.494a2.461,2.461,0,0,0,2.46-2.46V128.412A2.5,2.5,0,0,0,185.968,125.952Z" transform="translate(0 0)"/>
      <path id="路径_1758" data-name="路径 1758" class="cls-2" d="M280.8,231.356a2.087,2.087,0,0,0,1.051,1.819,2.059,2.059,0,0,0,2.1,0A2.142,2.142,0,0,0,285,231.356a2.087,2.087,0,0,0-1.051-1.819,2.059,2.059,0,0,0-2.1,0A2.087,2.087,0,0,0,280.8,231.356Zm0,0,.666,4.177-3.126,4.177-8.354-8.354-8.354,12.531h25.037Zm-19.835,11.48h14.607v2.076H261.632Zm0,5.2h25.037v2.076H261.632Zm0,0" transform="translate(-105.057 -98.126)"/>
    </g>
  </g>
</svg>
