<svg xmlns="http://www.w3.org/2000/svg" width="50" height="50" viewBox="0 0 50 50">
  <defs>
    <style>
      .cls-1 {
        fill: none;
      }

      .cls-2 {
        fill: #becad7;
      }
    </style>
  </defs>
  <g id="组_5027" data-name="组 5027" transform="translate(-32 -1032)">
    <rect id="矩形_5036" data-name="矩形 5036" class="cls-1" width="50" height="50" transform="translate(32 1032)"/>
    <path id="景区" class="cls-2" d="M42.043,82.224H3.678a1.666,1.666,0,0,0,0,3.332H42.066a1.659,1.659,0,0,0,1.666-1.666A1.694,1.694,0,0,0,42.043,82.224Zm-4.119,5.484H7.774a1.666,1.666,0,0,0,0,3.332H37.924a1.666,1.666,0,1,0,0-3.332Zm4.952-13.282-.255-.347a1.754,1.754,0,0,0,1.088-.671,14.563,14.563,0,0,0,2.754-8.538,14.682,14.682,0,0,0-27.929-6.34l-1.782-2.5a1.606,1.606,0,0,0-1.411-.694,1.69,1.69,0,0,0-1.365.787L.254,78.036A1.677,1.677,0,0,0,1.665,80.6,1.73,1.73,0,0,0,3.1,79.818L15.479,60.01,27.72,77.157a1.632,1.632,0,0,0,1.412.694,1.663,1.663,0,0,0,1.25-.6l5.484-6.595L42.83,79.91a1.7,1.7,0,0,0,1.342.671,1.652,1.652,0,0,0,.995-.324,1.592,1.592,0,0,0,.648-1.111,1.56,1.56,0,0,0-.324-1.226Zm.231-9.557a11.265,11.265,0,0,1-2.129,6.595c-.046.069-.093.162-.139.231l-3.563-4.744a1.688,1.688,0,0,0-1.319-.671,1.66,1.66,0,0,0-1.319.6l-5.461,6.548-8.515-11.94a1.508,1.508,0,0,0,.532-.717,11.329,11.329,0,0,1,21.913,4.1Z" transform="translate(33.646 986.32)"/>
  </g>
</svg>
