<svg xmlns="http://www.w3.org/2000/svg" width="50" height="50" viewBox="0 0 50 50">
  <defs>
    <style>
      .cls-1 {
        fill: none;
      }

      .cls-2 {
        fill: #becad7;
      }
    </style>
  </defs>
  <g id="组_5510" data-name="组 5510" transform="translate(-27 -225)">
    <g id="组_5492" data-name="组 5492" transform="translate(0 -751)">
      <rect id="矩形_5036" data-name="矩形 5036" class="cls-1" width="50" height="50" transform="translate(27 976)"/>
    </g>
    <g id="门票_1_" data-name="门票 (1)" transform="translate(29.677 227.587)">
      <path id="路径_1755" data-name="路径 1755" class="cls-2" d="M43.529,16.543,36.178,9.18a3.41,3.41,0,0,0-3.76-.629,2.563,2.563,0,0,1-3.337-3.337,3.4,3.4,0,0,0-.641-3.76L27.956.97A3.277,3.277,0,0,0,23.3.97L.97,23.3a3.277,3.277,0,0,0,0,4.655l.484.484a3.4,3.4,0,0,0,3.76.641,2.563,2.563,0,0,1,3.337,3.337,3.422,3.422,0,0,0,.629,3.76l7.363,7.351a3.313,3.313,0,0,0,4.655,0L43.529,21.21a3.325,3.325,0,0,0,0-4.667Zm-1.717,2.95L19.493,41.824a.871.871,0,0,1-1.209,0l-7.4-7.351a1.1,1.1,0,0,1-.109-1.209,4.969,4.969,0,0,0-.351-4.425l.967-.967a1.209,1.209,0,0,0-1.717-1.644l-.979.967a4.993,4.993,0,0,0-2.551-.725,4.836,4.836,0,0,0-1.874.375,1.076,1.076,0,0,1-1.137-.109l-.484-.484a.9.9,0,0,1,0-1.209L25.006,2.675a.9.9,0,0,1,1.209,0l.484.484A1.076,1.076,0,0,1,26.808,4.3a4.969,4.969,0,0,0,6.481,6.493A1.1,1.1,0,0,1,34.5,10.9l7.351,7.351a.9.9,0,0,1,0,1.209Z"/>
      <path id="路径_1756" data-name="路径 1756" class="cls-2" d="M311.376,333.9l-1.7,1.7a1.21,1.21,0,0,0,1.7,1.717l1.717-1.717a1.21,1.21,0,1,0-1.717-1.7Zm5.816-5.816-1.7,1.717a1.205,1.205,0,0,0,1.7,1.7l1.717-1.7a1.214,1.214,0,0,0-1.717-1.717Z" transform="translate(-295.873 -313.484)"/>
    </g>
  </g>
</svg>
